<svg version="1.1" xmlns="http://www.w3.org/2000/svg" viewBox="0 0 718.3112294105972 749.7141854961732" width="718.3112294105972" height="749.7141854961732" class="excalidraw-svg">
  <!-- svg-source:excalidraw -->
  <g stroke-linecap="round" transform="translate(0.7281546617710148 618.8900613768798) rotate(0 357.7267292261123 65.4120620596467)">
    <path d="M0 0 C278.93 -0.81, 558.96 0.59, 715.45 0 M0 0 C178.22 -1.21, 356.06 -1.16, 715.45 0 M715.45 0 C714.46 44.23, 713.31 90.18, 715.45 130.82 M715.45 0 C713.84 40.2, 713.52 77.94, 715.45 130.82 M715.45 130.82 C438.21 129.02, 161.13 129.43, 0 130.82 M715.45 130.82 C443 131.58, 170.08 131.41, 0 130.82 M0 130.82 C-0.61 93.75, 0.79 55.87, 0 0 M0 130.82 C-0.27 79.12, -1.84 29.5, 0 0" stroke-width="4"></path>
  </g>
  <g transform="translate(247.9544033806267 664.1890705043623) rotate(0 96.7999496459961 20)"><text x="96.7999496459961" y="28" font-family="Comic Shanns, monospace, Segoe UI Emoji" font-size="32px" text-anchor="middle" style="white-space: pre;" direction="ltr" dominant-baseline="alphabetic">Deployments</text></g>
  <g stroke-linecap="round" transform="translate(1.904079869542045 226.74005900595114) rotate(0 168.44022152489111 78.23299048838817)"><path d="M0 0 C131.24 -0.18, 261.82 -1.74, 336.88 0 M0 0 C123.02 0.85, 246.05 1.2, 336.88 0 M336.88 0 C336.54 40.31, 336.3 81.73, 336.88 156.47 M336.88 0 C338.82 60.95, 338.81 121.62, 336.88 156.47 M336.88 156.47 C227.08 156.96, 117.27 156.55, 0 156.47 M336.88 156.47 C260.43 157.35, 184.68 157.45, 0 156.47 M0 156.47 C-1.11 96.01, -0.23 37.67, 0 0 M0 156.47 C-0.77 106.34, -1.52 55.04, 0 0" stroke-width="4"></path> </g>
  <g transform="translate(48.13110005455866 287.58689699439435) rotate(0 120.58198547363281 19.57689627279342)"><text x="120.58198547363281" y="27.407654781910793" font-family="Comic Shanns, monospace, Segoe UI Emoji" font-size="31.323034036469476px" text-anchor="middle" style="white-space: pre;" direction="ltr" dominant-baseline="alphabetic">Internal Proxy</text></g>
  <g stroke-linecap="round" transform="translate(372.04902776782706 228.91680020741455) rotate(0 173.13110082138508 78.26471658107499)"><path d="M0 0 C133.19 -0.44, 265.04 2.06, 346.26 0 M0 0 C118.02 -1.66, 236.92 -1.35, 346.26 0 M346.26 0 C343.93 60.48, 343.97 117.64, 346.26 156.53 M346.26 0 C344.24 33.5, 345.07 65.42, 346.26 156.53 M346.26 156.53 C222.56 154.44, 102.31 153.79, 0 156.53 M346.26 156.53 C241.67 157.46, 137.42 158, 0 156.53 M0 156.53 C-0.59 96.72, 1.26 33.24, 0 0 M0 156.53 C2.24 113.79, 2.26 71.03, 0 0" stroke-width="4" ></path></g>
  <g transform="translate(446.09712009786995 284.3394445274297) rotate(0 103.38894653320312 19.584835358616374)"><text x="103.38894653320312" y="27.4187695020629" font-family="Comic Shanns, monospace, Segoe UI Emoji" font-size="31.33573657378617px" text-anchor="middle" style="white-space: pre;" direction="ltr" dominant-baseline="alphabetic">Public Proxy</text></g><g stroke-linecap="round" transform="translate(0.7600300342536173 430.9397002030008) rotate(0 168.88477816849758 65.4120620596467)"><path d="M0 0 C70.39 -2.41, 141.62 -1.32, 337.77 0 M0 0 C75.65 0.74, 150.82 1.36, 337.77 0 M337.77 0 C337.21 45.69, 338.73 90.39, 337.77 130.82 M337.77 0 C337.17 28.07, 337.28 56.04, 337.77 130.82 M337.77 130.82 C229.33 131.01, 120.61 130.98, 0 130.82 M337.77 130.82 C256.71 129.38, 176.87 128.84, 0 130.82 M0 130.82 C0.78 101.51, 1.02 73.69, 0 0 M0 130.82 C-1.19 89.33, -0.56 48.29, 0 0" stroke-width="4"></path></g>
  <g transform="translate(33.056879004727335 457.8896882032849) rotate(0 131.99993896484375 40)"><text x="131.99993896484375" y="28" font-family="Comic Shanns, monospace, Segoe UI Emoji" font-size="32px" text-anchor="middle" style="white-space: pre;" direction="ltr" dominant-baseline="alphabetic">Private Ingress</text><text x="131.99993896484375" y="68" font-family="Comic Shanns, monospace, Segoe UI Emoji" font-size="32px" text-anchor="middle" style="white-space: pre;" direction="ltr" dominant-baseline="alphabetic">Controllers</text></g>
  <g stroke-linecap="round" transform="translate(373.62894039565015 431.62365026344025) rotate(0 171.08986395714481 65.4120620596467)"><path d="M0 0 C97.57 0.4, 193.56 0.54, 342.18 0 M0 0 C133.8 1.97, 268.87 1.07, 342.18 0 M342.18 0 C344.81 38.28, 344.53 78.59, 342.18 130.82 M342.18 0 C341.8 37, 342.57 74.77, 342.18 130.82 M342.18 130.82 C263.45 129.3, 182.93 129.66, 0 130.82 M342.18 130.82 C238.89 133.18, 136.82 133.12, 0 130.82 M0 130.82 C0.4 103.67, -0.19 76.72, 0 0 M0 130.82 C-1.95 95.27, -1.7 58.18, 0 0" stroke-width="4"></path></g>
  <g transform="translate(426.2052178553986 457.4823498565303) rotate(0 123.19993591308594 40)"><text x="123.19993591308594" y="28" font-family="Comic Shanns, monospace, Segoe UI Emoji" font-size="32px" text-anchor="middle" style="white-space: pre;" direction="ltr" dominant-baseline="alphabetic">Public Ingress</text><text x="123.19993591308594" y="68" font-family="Comic Shanns, monospace, Segoe UI Emoji" font-size="32px" text-anchor="middle" style="white-space: pre;" direction="ltr" dominant-baseline="alphabetic">Controllers</text></g>
  <g stroke-linecap="round" transform="translate(0 0) rotate(0 172.25049597670386 65.41206205964664)"><path d="M0 0 C77.02 0.39, 152.82 -0.32, 344.5 0 M0 0 C89.18 0.74, 178.84 0.84, 344.5 0 M344.5 0 C346.8 33.83, 346.62 68.72, 344.5 130.82 M344.5 0 C345.9 35.04, 344.59 68.84, 344.5 130.82 M344.5 130.82 C266.82 130.34, 189.83 130.54, 0 130.82 M344.5 130.82 C224.79 128.51, 104.53 129.55, 0 130.82 M0 130.82 C1.58 79.13, 2.72 28.78, 0 0 M0 130.82 C-0.55 99.73, 0.36 68.57, 0 0" stroke-width="4"></path></g>
  <g transform="translate(61.320517041054956 43.049312183756456) rotate(0 105.59994506835938 20)"><text x="105.59994506835938" y="28" font-family="Comic Shanns, monospace, Segoe UI Emoji" font-size="32px" text-anchor="middle" style="white-space: pre;" direction="ltr" dominant-baseline="alphabetic">Home Network</text></g>
  <g stroke-linecap="round" transform="translate(372.14861357738016 0.5252234767777963) rotate(0 172.2504959767039 65.41206205964664)"><path d="M0 0 C82.32 -0.35, 163.32 1.85, 344.5 0 M0 0 C127.56 -2.64, 254.87 -1.65, 344.5 0 M344.5 0 C344.45 52.05, 343.25 102.52, 344.5 130.82 M344.5 0 C343.94 42.12, 344.87 84.17, 344.5 130.82 M344.5 130.82 C237.91 129.95, 128.85 129.9, 0 130.82 M344.5 130.82 C259.63 131.04, 174.79 130.42, 0 130.82 M0 130.82 C1.86 89.67, 0.8 45.06, 0 0 M0 130.82 C0.39 85.65, -0.13 41.31, 0 0" stroke-width="4"></path></g>
  <g transform="translate(462.1766590911145 44.28311372364033) rotate(0 70.39996337890628 20)"><text x="70.39996337890625" y="28" font-family="Comic Shanns, monospace, Segoe UI Emoji" font-size="32px" text-anchor="middle" style="white-space: pre;" direction="ltr" dominant-baseline="alphabetic">Internet</text></g>
  <g transform="translate(67.17045884209662 90.76152032231084) rotate(0 93.5 12.5)"><text x="93.5" y="17.5" font-family="Comic Shanns, monospace, Segoe UI Emoji" font-size="20px" text-anchor="middle" style="white-space: pre;" direction="ltr" dominant-baseline="alphabetic">(with pihole DNS)</text></g>
  <g mask="url(#mask-qY52o4Q2)" stroke-linecap="round">
    <g transform="translate(172.11313931301504 137.8241241192934) rotate(0 -0.9228731566073307 41.65522862633924)">
      <path d="M0.14 1.12 C-0.15 6.66, -0.75 20.37, -0.96 33.95 C-1.17 47.54, -1.14 74.48, -1.13 82.64 M-1.25 0.67 C-1.77 6.3, -1.9 21.87, -1.96 35.2 C-2.03 48.54, -1.93 73.06, -1.64 80.68" stroke-width="4"></path>
    </g>
    <g transform="translate(172.11313931301504 137.8241241192934) rotate(0 -0.9228731566073307 41.65522862633924)">
      <path d="M-10.18 58.56 C-5.07 66.42, -4.74 75.46, -1.64 80.68 M-10.18 58.56 C-6.45 66.13, -3.3 74.62, -1.64 80.68" stroke-width="4"></path>
    </g>
    <g transform="translate(172.11313931301504 137.8241241192934) rotate(0 -0.9228731566073307 41.65522862633924)">
      <path d="M6.03 58.25 C5.25 66.24, -0.33 75.4, -1.64 80.68 M6.03 58.25 C3.92 66.06, 1.23 74.67, -1.64 80.68" stroke-width="4"></path>
    </g>
  </g>
  <mask id="mask-qY52o4Q2" maskUnits="userSpaceOnUse" x="0" y="0" width="273.734009182944" height="319.740059005951">
    <rect x="0" y="0" width="273.734009182944" height="319.740059005951" fill="#fff"></rect>
    <rect x="105.81641482082263" y="161.70021100456472" width="130.89987182617188" height="21.25" fill="#000" opacity="1"></rect>
  </mask>
  <g transform="translate(105.81641482082262 161.70021100456472) rotate(0 65.3738513355851 17.779141741067804)">
    <text x="65.44993591308594" y="14.875" font-family="Comic Shanns, monospace, Segoe UI Emoji" font-size="17px" text-anchor="middle" style="white-space: pre;" direction="ltr" dominant-baseline="alphabetic">*.mydomain.com</text>
  </g>
  <g mask="url(#mask-3dyvrm5Y)" stroke-linecap="round">
  <g transform="translate(544.4335596532793 138.3493475960712) rotate(0 0.3336597181480272 42.12426787028892)"><path d="M-1.09 -0.68 C-1.01 5.31, -0.35 22.52, 0.12 36.57 C0.6 50.62, 1.85 75.76, 1.75 83.6 M0.55 1.57 C0.5 7.67, -0.92 23.95, -0.76 37.84 C-0.59 51.73, 1.56 77.12, 1.54 84.93" stroke-width="4"></path></g><g transform="translate(544.4335596532793 138.3493475960712) rotate(0 0.3336597181480272 42.12426787028892)"><path d="M-7.31 63.44 C-5.93 69.58, -3.24 77, 1.54 84.93 M-7.31 63.44 C-5.2 70.29, -1.71 76.17, 1.54 84.93" stroke-width="4"></path></g><g transform="translate(544.4335596532793 138.3493475960712) rotate(0 0.3336597181480272 42.12426787028892)"><path d="M8.57 62.78 C5.63 68.95, 4 76.55, 1.54 84.93 M8.57 62.78 C5.87 69.83, 4.55 75.91, 1.54 84.93" stroke-width="4"></path></g></g><mask id="mask-3dyvrm5Y" maskUnits="userSpaceOnUse" x="0" y="0" width="645.1125082752105" height="321.91680020741444"><rect x="0" y="0" width="645.1125082752105" height="321.91680020741444" fill="#fff"></rect><rect x="478.98362374019337" y="164.80963440794494" width="130.89987182617188" height="21.25" fill="#000" opacity="1"></rect></mask><g transform="translate(478.98362374019337 164.80963440794505) rotate(0 65.78359563123396 15.663981058415175)"><text x="65.44993591308594" y="14.875" font-family="Comic Shanns, monospace, Segoe UI Emoji" font-size="17px" text-anchor="middle" style="white-space: pre;" direction="ltr" dominant-baseline="alphabetic">*.mydomain.com</text></g><g stroke-linecap="round"><g transform="translate(170.27542387096307 390.2060399827275) rotate(0 -0.5201309299865429 16.79869512577659)"><path d="M-0.51 0.03 C-0.58 5.53, -0.72 27.87, -0.72 33.47 M0.23 -0.43 C0.09 5.38, -1.09 28.27, -1.27 34.03" stroke-width="4"></path></g><g transform="translate(170.27542387096307 390.2060399827275) rotate(0 -0.5201309299865429 16.79869512577659)"><path d="M-6.36 17.95 C-4.99 21.59, -4.19 25.9, -1.27 34.03 M-6.36 17.95 C-5.24 22.2, -3.22 26.45, -1.27 34.03" stroke-width="4"></path></g><g transform="translate(170.27542387096307 390.2060399827275) rotate(0 -0.5201309299865429 16.79869512577659)"><path d="M5.17 18.44 C3.69 21.91, 1.65 26.09, -1.27 34.03 M5.17 18.44 C3.1 22.55, 1.92 26.67, -1.27 34.03" stroke-width="4"></path></g></g><mask></mask><g stroke-linecap="round"><g transform="translate(545.1447611283969 392.44623336956454) rotate(0 -0.373601259332105 15.930815463589283)"><path d="M-0.46 -0.07 C-0.46 5.38, -0.58 27, -0.52 32.44 M0.31 -0.58 C0.26 4.73, -0.95 26.23, -1.06 31.62" stroke-width="4"></path></g><g transform="translate(545.1447611283969 392.44623336956454) rotate(0 -0.373601259332105 15.930815463589283)"><path d="M-5.95 16.29 C-5.08 19.19, -3.57 22.98, -1.06 31.62 M-5.95 16.29 C-3.88 22.09, -2.28 27.65, -1.06 31.62" stroke-width="4"></path></g><g transform="translate(545.1447611283969 392.44623336956454) rotate(0 -0.373601259332105 15.930815463589283)"><path d="M5.05 16.73 C3.64 19.49, 2.87 23.19, -1.06 31.62 M5.05 16.73 C2.99 22.37, 0.46 27.77, -1.06 31.62" stroke-width="4"></path></g></g><mask></mask><g stroke-linecap="round"><g transform="translate(169.92147844170972 568.7638243222942) rotate(0 0.759838892656937 21.658440260438738)"><path d="M0.34 0.32 C0.62 7.52, 1.41 35.68, 1.67 42.78 M-0.15 0.01 C0.07 7.31, 1.01 36.07, 1.33 43.31" stroke-width="4"></path></g><g transform="translate(169.92147844170972 568.7638243222942) rotate(0 0.759838892656937 21.658440260438738)"><path d="M-6.8 23.32 C-3.88 29.55, -2.67 35.9, 1.33 43.31 M-6.8 23.32 C-4.55 28.42, -3.04 33.87, 1.33 43.31" stroke-width="4"></path></g><g transform="translate(169.92147844170972 568.7638243222942) rotate(0 0.759838892656937 21.658440260438738)"><path d="M7.95 22.77 C6.49 29.21, 3.32 35.72, 1.33 43.31 M7.95 22.77 C6.34 27.98, 4 33.57, 1.33 43.31" stroke-width="4"></path></g></g><mask></mask><g stroke-linecap="round"><g transform="translate(545.0189390591714 569.4477743827337) rotate(0 0.9097311190083133 21.05189887244535)"><path d="M0.03 -0.49 C0.17 6.63, 1.2 35.46, 1.41 42.59 M-0.63 0.45 C-0.35 7.4, 1.95 34.64, 2.44 41.7" stroke-width="4"></path></g><g transform="translate(545.0189390591714 569.4477743827337) rotate(0 0.9097311190083133 21.05189887244535)"><path d="M-6.34 22.36 C-3.78 29.27, 0.84 36.68, 2.44 41.7 M-6.34 22.36 C-4.29 28.1, -1.05 32.89, 2.44 41.7" stroke-width="4"></path></g><g transform="translate(545.0189390591714 569.4477743827337) rotate(0 0.9097311190083133 21.05189887244535)"><path d="M8.15 21.24 C4.99 28.59, 3.9 36.44, 2.44 41.7 M8.15 21.24 C6.19 27.29, 5.44 32.39, 2.44 41.7" stroke-width="4"></path></g></g><mask></mask>
  <style>
    g {
      stroke: #000;
      fill: #ffffff00;
    }

    text {
      stroke: none;
      fill: #000;
    }

    @media (prefers-color-scheme: dark) {
      g {
        stroke: #FFF;
      }

      text {
        fill: #FFF;
      }
    }
  </style>
</svg>
