<svg xmlns="http://www.w3.org/2000/svg" xml:space="preserve" width="150mm" height="419.461" viewBox="0 0 150 110.983">
  <g style="display:inline">
    <path d="m101.783 139.654-.589-.707 1.156-.42-1.178.39-.884-.707 2.18-.486-2.21.45-.714-.877 2.895-.125-2.939.066-.67-.736s1.657-.089 1.834.03c.177.117-.066-.082-.066-.082l-1.834-.022-.67-.891s1.878-.265 2.585-.059 1.922.626 1.922.626 1.03.707 1.384 1.142.503.518.503.518l-1.105-1.243.435-.098-.495.06-.495-1.32s.735-.248 1.335.03c.6.277 1.081 1.898 1.081 1.898l.083.165" style="display:inline;stroke-width:.279;stroke-linecap:round;stroke-linejoin:round;stroke-miterlimit:2.4;stroke-dasharray:none;paint-order:normal" transform="translate(-1306.222 -1810.597)scale(13.4199)"/>
    <path d="m106.032 136.663-.074.002-.365.032.315.428-.442.105-.892.562-.719.557s-.726.6-.995 1.007l-.83.626-4.505 1.337c.054.004.142.069.213.4.11.517-.264.586-.264.586s.723.16.516.707c-.145.382 3.391-2.317 3.391-2.317l-3.322 1.332 3.193-1.503-.126-.13.25-.048.02.352.764-.163.768.11h.282s.565-.126.988-.408 1.457-1.316 1.583-1.708.72-.11.72-.11.47-.047.705-.266.413-.187.413-.187l.753.14s.04-.314-.365-.457a6 6 0 0 0-.701-.205s-.226-.396-.377-.425l-.477-.088-.172-.2s-.087-.063-.248-.068m-8.507 4.656a.07.07 0 0 0-.05.015zm8.928-4.386.502.288-.393-.066-.058.246.024-.38zm-1.277.257-.82.518zm-.972 3.245-.568.237z" style="display:inline;stroke-width:.279;stroke-linecap:round;stroke-linejoin:round;stroke-miterlimit:2.4;stroke-dasharray:none;paint-order:normal" transform="translate(-1306.222 -1810.597)scale(13.4199)"/>
  </g>
  <style>
    g {
      stroke: #000;
      fill: #ffffff00;
    }

    @media (prefers-color-scheme: dark) {
      g {
        stroke: #FFF;
      }
    }

  </style>
</svg>
